<?xml version="1.0" encoding="UTF-8"?>
<svg version="1.1" xmlns="http://www.w3.org/2000/svg" width="512" height="512">
<path d="M0 0 C5.05354818 -0.09404031 10.10584577 -0.0974559 15.16009903 -0.08986664 C16.7728362 -0.09054265 18.38557326 -0.09151513 19.99831009 -0.09276581 C23.35229859 -0.09422755 26.70626018 -0.09213698 30.06024551 -0.08742523 C34.32980192 -0.08171495 38.59929561 -0.08502491 42.86884975 -0.0909977 C46.18995501 -0.09463292 49.51104569 -0.09345142 52.83215141 -0.0908699 C54.40560603 -0.09020953 55.97906203 -0.09099742 57.55251503 -0.09334946 C66.07935262 -0.10330833 74.51017314 0.0434258 82.99213028 1.04294586 C83.56212979 7.36179762 82.02844215 10.51253372 78.61713028 15.54294586 C78.02738419 16.45173492 78.02738419 16.45173492 77.42572403 17.37888336 C75.96731091 19.613621 74.48031209 21.82790874 72.99213028 24.04294586 C71.44570057 26.35748356 69.90000845 28.6724984 68.35541153 30.98825836 C67.92756866 31.62949646 67.4997258 32.27073456 67.058918 32.93140411 C61.85551922 40.73700916 56.70620282 48.57808683 51.55463028 56.41794586 C49.34521861 59.77877007 47.13546938 63.13937229 44.92572403 66.49997711 C44.07633255 67.7918821 44.07633255 67.7918821 43.20978165 69.10988617 C37.99716329 77.03737161 32.77775977 84.96037861 27.55780411 92.88303375 C18.73451608 106.27479128 9.91258559 119.66747126 1.11609268 133.07685089 C0.291464 134.33370139 -0.53352081 135.59031832 -1.3588829 136.84668732 C-2.47472985 138.54551219 -3.589004 140.24536983 -4.70318222 141.94528961 C-5.32209335 142.8888028 -5.94100449 143.83231598 -6.5786705 144.80442047 C-8.0104626 146.96114931 -8.0104626 146.96114931 -9.00786972 149.04294586 C-8.11108505 149.04072525 -7.21430038 149.03850464 -6.29034042 149.03621674 C2.18366533 149.01613409 10.65766303 149.00093115 19.13168716 148.99113369 C23.48768509 148.98592732 27.84366325 148.97887065 32.19964981 148.96750641 C36.40771045 148.95659747 40.61575214 148.95065212 44.82382584 148.94806862 C46.42488274 148.94622876 48.02593867 148.94263607 49.62698746 148.93721581 C51.87893241 148.92989895 54.13080025 148.92895937 56.38275528 148.92942047 C57.66182755 148.92719986 58.94089981 148.92497925 60.25873184 148.92269135 C64.24142304 149.0509757 68.04827224 149.49138013 71.99213028 150.04294586 C71.71696462 156.77118999 68.99609802 160.45216362 64.92963028 165.66794586 C64.30765762 166.48843414 63.68568497 167.30892242 63.04486465 168.15427399 C61.03986085 170.79369691 59.01658401 173.41842229 56.99213028 176.04294586 C55.6587786 177.78933435 54.3267421 179.53672776 52.99603653 181.28513336 C50.98656238 183.92482377 48.97620106 186.56377888 46.96112442 189.19919586 C40.18871414 198.06240092 33.58171826 207.04345142 26.99213028 216.04294586 C19.08232353 226.84548193 11.09105945 237.57416535 2.95355606 248.20652008 C-2.01166213 254.70502639 -6.87901585 261.26926895 -11.71001816 267.86789703 C-16.15268074 273.92074099 -20.69165609 279.89542545 -25.25786972 285.85544586 C-29.59903075 291.52352781 -33.90201309 297.20175068 -38.00786972 303.04294586 C-42.77107727 309.81932105 -47.8069293 316.37875022 -52.84380722 322.95310211 C-57.29511298 328.77147556 -61.68030105 334.63205975 -66.00786972 340.54294586 C-71.70304066 348.31764394 -77.50518435 356.0054805 -83.36993027 363.65305328 C-86.25738276 367.41986793 -89.13463925 371.18768489 -91.91411972 375.03513336 C-92.33008408 375.60755768 -92.74604843 376.17998199 -93.17461777 376.7697525 C-94.22707161 378.22632351 -95.26841547 379.6909052 -96.30865097 381.15622711 C-96.86939316 381.7788443 -97.43013535 382.40146149 -98.00786972 383.04294586 C-98.99786972 383.04294586 -99.98786972 383.04294586 -101.00786972 383.04294586 C-101.29850551 377.61042733 -100.37475034 373.38352918 -98.42193222 368.37888336 C-97.99592979 367.24522339 -97.99592979 367.24522339 -97.56132126 366.08866119 C-96.59591849 363.5275486 -95.61424899 360.97297498 -94.63286972 358.41794586 C-93.92789684 356.55687713 -93.22407925 354.69537045 -92.52129745 352.83347321 C-90.93161834 348.62699161 -89.33520646 344.42313768 -87.7349205 340.22068024 C-84.72125986 332.29915282 -81.73686339 324.36671721 -78.75396347 316.43357086 C-77.64989719 313.49798622 -76.54570554 310.56244875 -75.44146347 307.62693024 C-75.02612508 306.52275757 -75.02612508 306.52275757 -74.60239601 305.39627838 C-71.52226532 297.20899596 -68.43567813 289.02415128 -65.34771347 280.83982086 C-65.07522655 280.11761353 -64.80273964 279.39540619 -64.52199554 278.65131378 C-60.91747753 269.09841076 -57.30976221 259.54671993 -53.69927597 249.99607086 C-53.30118225 248.94289673 -52.90308853 247.8897226 -52.49293137 246.80463409 C-50.3702771 241.18950468 -48.24586335 235.57504588 -46.12000656 229.96112823 C-45.24885677 227.6559921 -44.38223037 225.34920466 -43.51665878 223.0419693 C-42.58000744 220.54664276 -41.62290912 218.06382498 -40.64751816 215.58298492 C-40.26885605 214.60297516 -39.89019394 213.62296539 -39.50005722 212.61325836 C-39.18149765 211.80904449 -38.86293808 211.00483063 -38.53472519 210.17624664 C-37.92734637 207.7168972 -38.06261888 206.38133321 -39.00786972 204.04294586 C-41.79821233 202.64777456 -44.08012944 202.92339424 -47.20171738 202.92942047 C-48.50291519 202.929496 -49.80411301 202.92957153 -51.14474106 202.92964935 C-52.57047183 202.93475639 -53.99620222 202.9399724 -55.42193222 202.94528961 C-56.87638933 202.94715439 -58.33084706 202.94857801 -59.78530502 202.94957733 C-63.61579748 202.95339781 -67.44625209 202.9632241 -71.27672958 202.97428131 C-75.18450026 202.98450551 -79.09227703 202.98907712 -83.00005722 202.99411774 C-90.66934532 203.00484678 -98.33860222 203.02191758 -106.00786972 203.04294586 C-107.74277835 199.5731286 -107.57840068 195.88126946 -106.43413925 192.19431305 C-105.54527238 190.06604025 -104.57397378 187.99466672 -103.57036972 185.91794586 C-102.73953964 184.13544081 -101.90882017 182.3528842 -101.07818222 180.57028961 C-100.59897324 179.55434723 -100.11976425 178.53840485 -99.62603378 177.49167633 C-97.79170883 173.58225051 -95.98672933 169.66004657 -94.18755722 165.73435211 C-93.84807556 164.99372528 -93.5085939 164.25309845 -93.15882492 163.49002838 C-92.45108664 161.94589829 -91.74338989 160.40174916 -91.03573227 158.85758209 C-89.5578037 155.63550009 -88.0757766 152.41531042 -86.59376144 149.19510651 C-83.39240396 142.23876063 -80.19807569 135.2793048 -77.01958847 128.31247711 C-76.69825943 127.60819077 -76.37693039 126.90390442 -76.04586411 126.17827606 C-75.39874303 124.75979081 -74.7516381 123.34129819 -74.10454941 121.92279816 C-67.53541512 107.5237262 -60.89852438 93.15706774 -54.23083115 78.80338287 C-49.0840457 67.72161707 -43.98175098 56.62149097 -38.94530869 45.48914337 C-34.29306912 35.21038671 -29.62358354 24.93972586 -24.82036972 14.73044586 C-24.38660019 13.79313629 -23.95283066 12.85582672 -23.5059166 11.89011383 C-22.89780136 10.61031647 -22.89780136 10.61031647 -22.27740097 9.30466461 C-21.93297958 8.57207428 -21.5885582 7.83948395 -21.2336998 7.08469391 C-19.7233474 4.56904421 -18.27436868 2.92600948 -16.00786972 1.04294586 C-13.15830612 0.43824005 -13.15830612 0.43824005 -9.83086777 0.30124664 C-7.95750244 0.21837402 -7.95750244 0.21837402 -6.04629135 0.13382721 C-4.03096218 0.08266673 -2.01551357 0.04310935 0 0 Z " fill="#000000" transform="translate(279.007869720459,63.957054138183594)"/>
<path d="M0 0 C13.25852561 6.85714371 25.13296799 20.32757933 34 32 C34.73605469 32.93199219 35.47210938 33.86398438 36.23046875 34.82421875 C64.39705228 71.13535656 76.13176843 116.46972489 70.875 161.9375 C69.41096561 173.33162566 66.61859699 184.11478953 63 195 C62.76941895 195.7105957 62.53883789 196.42119141 62.30126953 197.15332031 C48.56648508 238.86636939 17.7374728 273.01362577 -21 293 C-21.9276416 293.47928955 -21.9276416 293.47928955 -22.87402344 293.96826172 C-43.93584508 304.67832679 -68.3164875 311.58708696 -92 312 C-92.64888184 312.01901367 -93.29776367 312.03802734 -93.96630859 312.05761719 C-102.75251173 312.30229119 -111.43716808 312.03378186 -120.1875 311.1875 C-121.35369873 311.08248169 -121.35369873 311.08248169 -122.54345703 310.9753418 C-127.54235972 310.4311808 -131.47004485 309.18997832 -136 307 C-135.77008215 296.65369678 -127.94127936 288.3291201 -121.20703125 281.1015625 C-115.69691198 275.85475866 -110.1405976 274.01461483 -102.66015625 273.640625 C-82.76984932 272.48985803 -64.14934664 269.56486021 -46 261 C-45.33049316 260.68579102 -44.66098633 260.37158203 -43.97119141 260.04785156 C-12.76913833 245.11538882 12.99858861 218.93359648 24.98144531 186.1887207 C36.71788035 152.34648991 34.1776884 115.33507529 19 83 C14.48435742 73.70547111 9.47261368 65.09358128 3 57 C2.56703613 56.4548877 2.13407227 55.90977539 1.68798828 55.34814453 C-4.21533173 47.98183676 -10.24104174 41.39830011 -17.89916992 35.81445312 C-20.8498045 33.54396328 -21.95562713 32.1517929 -23.01171875 28.5390625 C-22.97820985 18.41937542 -14.33316042 8.46046298 -8 1 C-5.17392942 -0.41303529 -3.13638046 -0.25752143 0 0 Z " fill="#000000" transform="translate(362,117)"/>
<path d="M0 0 C-2.58053134 14.89464579 -7.45065059 27.14095023 -17 39 C-17.46921875 39.63292969 -17.9384375 40.26585937 -18.421875 40.91796875 C-24.46462029 48.68467373 -33.35208644 53.89938414 -41.4375 59.3125 C-72.13779209 80.47626169 -89.8997327 113.11330256 -96.609375 149.28515625 C-98.40621434 166.37309839 -97.54896967 183.43708481 -93 200 C-92.80164551 200.74475586 -92.60329102 201.48951172 -92.39892578 202.25683594 C-87.38092779 220.53240859 -78.3932927 237.66841982 -66 252 C-65.15308594 252.98484375 -64.30617188 253.9696875 -63.43359375 254.984375 C-59.13091979 259.84541123 -54.72289203 264.35772279 -49.69140625 268.46484375 C-45.82026576 271.97837311 -44.27420409 275.04175976 -43.796875 280.19140625 C-43.59347225 290.48019558 -46.41870485 300.30475055 -52 309 C-55 311 -55 311 -57.81640625 310.88671875 C-72.85220008 306.69883507 -89.04637276 287.01015306 -98 275 C-98.39493652 274.48002441 -98.78987305 273.96004883 -99.19677734 273.42431641 C-119.5938041 246.47479451 -131.85476493 214.92081675 -135.1875 181.3125 C-135.27153076 180.46977539 -135.35556152 179.62705078 -135.44213867 178.75878906 C-139.30665633 135.62659419 -125.1436313 92.53312902 -97.60253906 59.31445312 C-94.82900657 56.119956 -91.9134211 53.06595624 -89 50 C-87.78472745 48.58928156 -86.57579395 47.17306281 -85.375 45.75 C-71.70519695 30.11832707 -22.92408214 -8.5337824 0 0 Z " fill="#000000" transform="translate(226,90)"/>
</svg>
